<?xml version="1.0" encoding="utf-8"?>
<!-- Generator: Adobe Illustrator 19.0.0, SVG Export Plug-In . SVG Version: 6.00 Build 0)  -->
<svg version="1.1" id="Layer_1" xmlns="http://www.w3.org/2000/svg" xmlns:xlink="http://www.w3.org/1999/xlink" x="0px" y="0px"
	 viewBox="0 0 100 100" style="enable-background:new 0 0 100 100;" xml:space="preserve">
<g id="XMLID_8_">
	<path id="XMLID_9_" d="M71,87.4c0.1-0.4,0.1-0.7,0.1-1.1c0-2.9-2.4-5.3-5.3-5.3H65c-0.1-0.6-0.3-1.3-0.4-2
		c-1.1-4.6-2.5-10.7-2.9-32c2.4-0.5,4.1-2.6,4.1-5.1c0-2.1-1.2-3.9-3-4.7c1.3-2.5,3-6.4,3-10c0-3.4-3.4-7.6-7.3-12.4
		c-2.7-3.3-6.4-7.9-6.4-9.8h-4.2c0,1.9-3.7,6.4-6.4,9.8c-3.9,4.8-7.3,9-7.3,12.4c0,3.6,1.7,7.5,3,10c-1.8,0.9-3,2.6-3,4.7
		c0,2.5,1.8,4.6,4.1,5.1c-0.4,21.2-1.8,27.3-2.9,32c-0.2,0.7-0.3,1.3-0.4,2h-0.8c-2.9,0-5.3,2.4-5.3,5.3c0,0.4,0,0.8,0.1,1.1
		c-3.1,0.5-5.4,3.1-5.4,6.3c0,3.5,2.8,6.3,6.3,6.3h40.1c3.5,0,6.3-2.8,6.3-6.3C76.4,90.5,74,87.9,71,87.4z M39.4,43
		c-0.6,0-1.1-0.5-1.1-1.1c0-0.6,0.5-1.1,1.1-1.1h21.1c0.6,0,1.1,0.5,1.1,1.1c0,0.6-0.5,1.1-1.1,1.1H39.4z M43.2,19.4l2.8,5.6
		l3.8-1.9l-3.7-7.3c1.5-1.8,2.8-3.6,3.9-5.2c1.3,2.1,3.2,4.4,5.2,6.9c2.7,3.3,6.4,7.9,6.4,9.8c0,3.5-2.2,7.7-3.3,9.5H41.7
		c-1.1-1.8-3.3-6-3.3-9.5C38.4,25.6,40.8,22.3,43.2,19.4z M39.5,80c1.1-4.8,2.6-11.1,3-32.8h14.9c0.4,21.7,1.9,28,3,32.8
		c0.1,0.3,0.2,0.7,0.2,1H39.3C39.4,80.7,39.5,80.4,39.5,80z M34.2,85.2h31.7c0.6,0,1.1,0.5,1.1,1.1s-0.5,1.1-1.1,1.1H34.2
		c-0.6,0-1.1-0.5-1.1-1.1S33.6,85.2,34.2,85.2z M70.1,95.8H29.9c-1.2,0-2.1-0.9-2.1-2.1c0-1.2,0.9-2.1,2.1-2.1h40.1
		c1.2,0,2.1,0.9,2.1,2.1C72.2,94.8,71.2,95.8,70.1,95.8z"/>
</g>
</svg>
