<?xml version="1.0" encoding="utf-8"?>
<!-- Generator: Adobe Illustrator 19.0.0, SVG Export Plug-In . SVG Version: 6.00 Build 0)  -->
<svg version="1.1" id="Layer_1" xmlns="http://www.w3.org/2000/svg" xmlns:xlink="http://www.w3.org/1999/xlink" x="0px" y="0px"
	 viewBox="0 0 100 100" style="enable-background:new 0 0 100 100;" xml:space="preserve">
<g id="XMLID_8_">
	<path id="XMLID_9_" d="M76.6,87.2c0.1-0.4,0.1-0.8,0.1-1.1c0-2.9-2.4-5.3-5.3-5.3h-2.1c0.5-12.1,4.7-22.3,8.1-30.6
		c2.9-4.4,4.6-9.7,4.6-15.4C82.1,19.5,69.6,7,54.3,7h-2.1v5.3h-7.5c-5.1,0-9.2,3.9-9.6,8.9c-0.6,0.5-2,1.3-3.2,2.1
		c-5.6,3.4-14,8.6-14,15.8c0,5.1,3.9,9.2,8.9,9.6c0.9,2.5,3.3,4.3,6.1,4.3c3,0,5.6-2.1,6.2-4.9l5.2-2.2c0.7,0.5,1.6,0.9,2.4,1.2
		C45.9,52.8,41,57.2,35,57.2h-2.3l2.1,23.5h-1.9c-2.9,0-5.3,2.4-5.3,5.3c0,0.4,0,0.8,0.1,1.1c-3.1,0.5-5.5,3.1-5.5,6.3
		c0,3.5,2.9,6.4,6.4,6.4h47c3.5,0,6.4-2.9,6.4-6.4C82.1,90.4,79.7,87.7,76.6,87.2z M37.4,61.3c7.1-1,12.7-6.8,13.6-13.9
		c1.9-0.3,3.6-1.1,5.1-2.5c1.7-1.7,2.7-4,2.7-6.4S57.7,33.7,56,32l-3,3c1.9,1.9,1.9,4.9,0,6.8c-1.9,1.9-4.9,1.9-6.8,0l-1-1L35,45.1
		v1.4c0,1.2-1,2.1-2.1,2.1c-1.1,0-2-0.9-2.1-2l3.5-2.8l-2.7-3.3l-4.7,3.7c-2.6-0.3-4.7-2.6-4.7-5.3c0-4.8,7.5-9.4,11.9-12.1
		c3.5-2.2,5.2-3.2,5.2-5c0-2.9,2.4-5.3,5.3-5.3h7.5v3.2h4.3v-8.5c12,1.1,21.4,11.2,21.4,23.4c0,13-10.5,23.5-23.5,23.5v4.3
		c5.7,0,11.1-1.7,15.5-4.7c-2.4,6.7-4.5,14.3-4.8,22.9H39.1L37.4,61.3z M32.9,85h38.5c0.6,0,1.1,0.5,1.1,1.1c0,0.6-0.5,1.1-1.1,1.1
		H32.9c-0.6,0-1.1-0.5-1.1-1.1C31.8,85.5,32.3,85,32.9,85z M75.7,95.7h-47c-1.2,0-2.1-1-2.1-2.1c0-1.2,1-2.1,2.1-2.1h47
		c1.2,0,2.1,1,2.1,2.1C77.8,94.8,76.8,95.7,75.7,95.7z M46.8,19.1l2.2,3.7l-5.3,3.2l-2.2-3.7L46.8,19.1z M26.4,36.2l2.4,3.6
		l-3.2,2.1l-2.4-3.6L26.4,36.2z"/>
</g>
</svg>
