<?xml version="1.0" encoding="utf-8"?>
<!-- Generator: Adobe Illustrator 19.0.0, SVG Export Plug-In . SVG Version: 6.00 Build 0)  -->
<svg version="1.1" id="Layer_1" xmlns="http://www.w3.org/2000/svg" xmlns:xlink="http://www.w3.org/1999/xlink" x="0px" y="0px"
	 viewBox="0 0 100 100" style="enable-background:new 0 0 100 100;" xml:space="preserve">
<g id="XMLID_10_">
	<path id="XMLID_11_" d="M71.2,87.3c0.1-0.4,0.1-0.8,0.1-1.1c0-2.9-2.4-5.3-5.3-5.3h-0.7c-0.2-0.8-0.3-1.7-0.5-2.5
		c-1.1-5.4-2.7-12.6-3-36c2.4-0.5,4.2-2.7,4.2-5.2c0-2.3-1.4-4.2-3.4-5l6.5-16.7l-4-1.5l-1,2.7c-2.2-0.9-5.2-1.4-8.1-1.7
		c0.3-0.7,0.5-1.5,0.5-2.4C56.4,8.9,53.5,6,50,6s-6.4,2.9-6.4,6.4c0,0.8,0.2,1.6,0.5,2.4c-2.9,0.2-5.9,0.7-8.1,1.7l-1-2.7l-4,1.5
		L37.4,32c-2,0.8-3.4,2.7-3.4,5c0,2.6,1.8,4.7,4.2,5.2c-0.3,23.4-1.8,30.6-3,36c-0.2,0.9-0.4,1.7-0.5,2.5H34c-2.9,0-5.3,2.4-5.3,5.3
		c0,0.4,0,0.8,0.1,1.1c-3.1,0.5-5.5,3.1-5.5,6.3c0,3.5,2.9,6.4,6.4,6.4h40.6c3.5,0,6.4-2.9,6.4-6.4C76.7,90.4,74.3,87.7,71.2,87.3z
		 M39.3,38c-0.6,0-1.1-0.5-1.1-1.1c0-0.6,0.5-1.1,1.1-1.1h21.4c0.6,0,1.1,0.5,1.1,1.1c0,0.6-0.5,1.1-1.1,1.1H39.3z M41.8,31.6
		l-2.5-6.4h21.3l-2.5,6.4H41.8z M47.9,12.4c0-1.2,1-2.1,2.1-2.1s2.1,1,2.1,2.1s-1,2.1-2.1,2.1S47.9,13.6,47.9,12.4z M50,18.8
		c6.6,0,10.9,0.9,12.5,1.6L62.3,21H37.7l-0.2-0.6C39.1,19.7,43.4,18.8,50,18.8z M39.4,79.1c1.2-5.6,2.7-13,3-36.8h15.1
		c0.3,23.8,1.9,31.2,3,36.8c0.1,0.6,0.2,1.1,0.3,1.7H39.1C39.2,80.2,39.3,79.7,39.4,79.1z M34,85h32c0.6,0,1.1,0.5,1.1,1.1
		c0,0.6-0.5,1.1-1.1,1.1H34c-0.6,0-1.1-0.5-1.1-1.1C32.9,85.5,33.4,85,34,85z M70.3,95.7H29.7c-1.2,0-2.1-1-2.1-2.1
		c0-1.2,1-2.1,2.1-2.1h40.6c1.2,0,2.1,1,2.1,2.1C72.4,94.8,71.5,95.7,70.3,95.7z"/>
</g>
</svg>
