<?xml version="1.0" encoding="utf-8"?>
<!-- Generator: Adobe Illustrator 19.0.0, SVG Export Plug-In . SVG Version: 6.00 Build 0)  -->
<svg version="1.1" id="Layer_1" xmlns="http://www.w3.org/2000/svg" xmlns:xlink="http://www.w3.org/1999/xlink" x="0px" y="0px"
	 viewBox="0 0 100 100" style="enable-background:new 0 0 100 100;" xml:space="preserve">
<g id="XMLID_8_">
	<path id="XMLID_9_" d="M75.6,87.2c0.1-0.4,0.1-0.8,0.1-1.2c0-2.7-2-4.9-4.6-5.3c-0.3-0.8-0.6-1.6-0.9-2.4
		c-2.1-5.2-5.1-12.2-5.2-40.6c3,0,5.4-2.4,5.4-5.4c0-0.7-0.1-1.3-0.4-1.9c1.5-1,2.5-2.6,2.5-4.5V15.2V8.8V6.7H60.7v6.4h-2.1V6.7
		H41.4v6.4h-2.1V6.7H27.5v2.1v6.4V26c0,1.9,1,3.6,2.5,4.5c-0.2,0.6-0.4,1.2-0.4,1.9c0,3,2.4,5.4,5.4,5.4
		c-0.1,28.4-3.1,35.4-5.2,40.6c-0.3,0.8-0.7,1.6-0.9,2.4c-2.6,0.4-4.6,2.6-4.6,5.3c0,0.4,0,0.8,0.1,1.2c-3.1,0.5-5.5,3.1-5.5,6.4
		c0,3.6,2.9,6.4,6.4,6.4h49.4c3.6,0,6.4-2.9,6.4-6.4C81.1,90.3,78.7,87.7,75.6,87.2z M28.5,86.1c0-0.6,0.5-1.1,1.1-1.1h40.8
		c0.6,0,1.1,0.5,1.1,1.1c0,0.6-0.5,1.1-1.1,1.1H29.6C29,87.1,28.5,86.6,28.5,86.1z M31.8,11H35v6.4h10.7V11h8.6v6.4H65V11h3.2v4.3
		V26c0,0.6-0.5,1.1-1.1,1.1H32.8c-0.6,0-1.1-0.5-1.1-1.1V15.2V11z M33.9,32.4c0-0.6,0.5-1.1,1.1-1.1h30c0.6,0,1.1,0.5,1.1,1.1
		c0,0.6-0.5,1.1-1.1,1.1H35C34.4,33.5,33.9,33,33.9,32.4z M39.3,37.8h21.5C60.9,67,64,74.5,66.3,80c0.1,0.2,0.2,0.4,0.3,0.7H33.5
		c0.1-0.2,0.2-0.4,0.3-0.7C36,74.5,39.1,67,39.3,37.8z M74.7,95.7H25.3c-1.2,0-2.1-1-2.1-2.1s1-2.1,2.1-2.1h49.4
		c1.2,0,2.1,1,2.1,2.1S75.9,95.7,74.7,95.7z"/>
</g>
</svg>
