<?xml version="1.0" encoding="utf-8"?>
<!-- Generator: Adobe Illustrator 19.0.0, SVG Export Plug-In . SVG Version: 6.00 Build 0)  -->
<svg version="1.1" id="Layer_1" xmlns="http://www.w3.org/2000/svg" xmlns:xlink="http://www.w3.org/1999/xlink" x="0px" y="0px"
	 viewBox="0 0 100 100" style="enable-background:new 0 0 100 100;" xml:space="preserve">
<g id="XMLID_8_">
	<path id="XMLID_9_" d="M71.2,87.3c0.1-0.4,0.1-0.8,0.1-1.1c0-2.9-2.3-5.2-5.1-5.3c-0.2-0.3-0.3-0.6-0.5-0.8c-1.9-3-4.9-7.6-5-35.5
		c2.9,0,5.3-2.4,5.3-5.3c0-2.9-2.3-5.2-5.2-5.3C64,30.9,66,26.7,66,22c0-8.8-7.2-16-16-16s-16,7.2-16,16c0,4.7,2,8.8,5.2,11.8
		c-2.9,0.1-5.2,2.4-5.2,5.3c0,2.9,2.4,5.3,5.3,5.3c-0.1,27.9-3.1,32.5-5,35.5c-0.2,0.3-0.4,0.6-0.5,0.8c-2.9,0.1-5.1,2.4-5.1,5.3
		c0,0.4,0,0.8,0.1,1.1c-3.1,0.5-5.5,3.1-5.5,6.3c0,3.5,2.9,6.4,6.4,6.4h40.6c3.5,0,6.4-2.9,6.4-6.4C76.7,90.4,74.3,87.7,71.2,87.3z
		 M32.9,86.1c0-0.6,0.5-1.1,1.1-1.1h32c0.6,0,1.1,0.5,1.1,1.1c0,0.6-0.5,1.1-1.1,1.1H34C33.4,87.2,32.9,86.7,32.9,86.1z M38.8,80.8
		C41,77,43.5,70,43.6,44.5h12.8C56.5,70,59,77,61.2,80.8H38.8z M38.2,22c0-6.5,5.3-11.8,11.8-11.8S61.7,15.5,61.7,22
		S56.5,33.8,50,33.8S38.2,28.5,38.2,22z M38.2,39.1c0-0.6,0.5-1.1,1.1-1.1h21.4c0.6,0,1.1,0.5,1.1,1.1s-0.5,1.1-1.1,1.1H39.3
		C38.7,40.2,38.2,39.7,38.2,39.1z M70.3,95.7H29.7c-1.2,0-2.1-1-2.1-2.1c0-1.2,1-2.1,2.1-2.1h40.6c1.2,0,2.1,1,2.1,2.1
		C72.4,94.8,71.5,95.7,70.3,95.7z"/>
</g>
</svg>
