<?xml version="1.0" encoding="utf-8"?>
<!-- Generator: Adobe Illustrator 19.0.0, SVG Export Plug-In . SVG Version: 6.00 Build 0)  -->
<svg version="1.1" id="Layer_1" xmlns="http://www.w3.org/2000/svg" xmlns:xlink="http://www.w3.org/1999/xlink" x="0px" y="0px"
	 viewBox="0 0 100 100" style="enable-background:new 0 0 100 100;" xml:space="preserve">
<g id="XMLID_8_">
	<path id="XMLID_9_" d="M75.5,87.2c0.1-0.4,0.1-0.8,0.1-1.1c0-2.7-2-4.9-4.6-5.3c-0.3-0.8-0.6-1.6-0.9-2.4C68,73.3,65.1,66.2,65,38
		c2.9,0,5.3-2.4,5.3-5.3c0-0.7-0.1-1.3-0.4-1.9c1.5-0.9,2.5-2.6,2.5-4.5V15.6V9.1V7H60.7v6.4h-2.1V7H41.4v6.4h-2.1V7H27.6v2.1v6.4
		v10.7c0,1.9,1,3.6,2.5,4.5c-0.2,0.6-0.4,1.2-0.4,1.9c0,2.9,2.4,5.3,5.3,5.3c-0.1,28.2-3,35.3-5.2,40.5c-0.3,0.8-0.6,1.6-0.9,2.4
		c-2.6,0.4-4.6,2.6-4.6,5.3c0,0.4,0,0.8,0.1,1.1c-3.1,0.5-5.5,3.1-5.5,6.3c0,3.5,2.9,6.4,6.4,6.4h49.2c3.5,0,6.4-2.9,6.4-6.4
		C81,90.4,78.6,87.7,75.5,87.2z M28.6,86.1c0-0.6,0.5-1.1,1.1-1.1h40.6c0.6,0,1.1,0.5,1.1,1.1c0,0.6-0.5,1.1-1.1,1.1H29.7
		C29.1,87.2,28.6,86.7,28.6,86.1z M31.8,11.3H35v6.4h10.7v-6.4h8.6v6.4H65v-6.4h3.2v4.3v10.7c0,0.6-0.5,1.1-1.1,1.1H32.9
		c-0.6,0-1.1-0.5-1.1-1.1V15.6V11.3z M34,32.7c0-0.6,0.5-1.1,1.1-1.1H65c0.6,0,1.1,0.5,1.1,1.1c0,0.6-0.5,1.1-1.1,1.1H35
		C34.5,33.7,34,33.2,34,32.7z M39.3,38h21.4c0.1,29.1,3.2,36.6,5.5,42.1c0.1,0.2,0.2,0.4,0.3,0.7h-33c0.1-0.2,0.2-0.4,0.3-0.7
		C36.1,74.6,39.2,67.1,39.3,38z M74.6,95.7H25.4c-1.2,0-2.1-1-2.1-2.1c0-1.2,1-2.1,2.1-2.1h49.2c1.2,0,2.1,1,2.1,2.1
		C76.7,94.8,75.8,95.7,74.6,95.7z"/>
</g>
</svg>
