<?xml version="1.0" encoding="utf-8"?>
<!-- Generator: Adobe Illustrator 16.0.0, SVG Export Plug-In . SVG Version: 6.00 Build 0)  -->
<!DOCTYPE svg PUBLIC "-//W3C//DTD SVG 1.1//EN" "http://www.w3.org/Graphics/SVG/1.1/DTD/svg11.dtd">
<svg version="1.1" id="Layer_1" xmlns="http://www.w3.org/2000/svg" xmlns:xlink="http://www.w3.org/1999/xlink" x="0px" y="0px"
	 width="1000px" height="1000px" viewBox="0 0 1000 1000" enable-background="new 0 0 1000 1000" xml:space="preserve">
<path fill="none" stroke="#010101" stroke-width="7" stroke-miterlimit="10" d="M677.202,889.812
	c0.842-3.368,0.842-5.895,0.842-9.263c0-24.414-20.204-44.62-44.619-44.62h-6.735c-0.842-5.051-2.525-10.943-3.367-16.838
	c-9.261-38.727-21.047-90.082-24.415-269.404c20.205-4.21,34.519-21.89,34.519-42.937c0-17.68-10.104-32.834-25.258-39.568
	c10.944-21.048,25.258-53.881,25.258-84.189c0-28.624-28.624-63.983-61.458-104.395c-22.731-27.782-53.882-66.509-53.882-82.505
	h-35.358c0,15.996-31.15,53.881-53.881,82.505c-32.834,40.411-61.458,75.771-61.458,104.395c0,30.308,14.312,63.142,25.257,84.189
	c-15.154,7.576-25.257,21.889-25.257,39.568c0,21.047,15.154,38.727,34.518,42.937c-3.368,178.48-15.154,229.837-24.415,269.404
	c-1.684,5.895-2.524,10.945-3.367,16.838h-6.734c-24.415,0-44.62,20.206-44.62,44.62c0,3.368,0,6.735,0.842,9.263
	c-26.099,4.209-45.462,26.098-45.462,53.038c0,29.467,23.573,53.039,53.039,53.039h337.598c29.467,0,53.039-23.572,53.039-53.039
	C722.663,915.91,702.458,894.021,677.202,889.812z"/>
<path fill="#010101" stroke="#010101" stroke-miterlimit="10" d="M411.18,516.013c-5.052,0-9.261-4.209-9.261-9.261
	s4.209-9.261,9.261-9.261h177.64c5.051,0,9.26,4.209,9.26,9.261s-4.209,9.261-9.26,9.261H411.18z"/>
<path fill="#010101" stroke="#010101" stroke-miterlimit="10" d="M442.751,317.327l23.573,47.146l31.992-15.996l-31.15-61.458
	c12.629-15.154,23.573-30.308,32.834-43.778c10.944,17.68,26.94,37.043,43.778,58.091c22.73,27.782,53.881,66.509,53.881,82.505
	c0,29.466-18.521,64.826-27.782,79.979H430.123c-9.261-15.154-27.782-50.513-27.782-79.979
	C402.34,369.524,422.546,341.742,442.751,317.327z"/>
<path fill="#010101" stroke="#010101" stroke-miterlimit="10" d="M412.021,827.512c9.262-40.41,21.89-93.448,25.258-276.14h125.44
	c3.367,182.69,15.996,235.729,25.257,276.14c0.843,2.526,1.685,5.895,1.685,8.419H410.339
	C411.18,833.405,412.021,830.88,412.021,827.512z"/>
<path fill="#010101" stroke="#010101" stroke-miterlimit="10" d="M366.561,871.29h266.878c5.053,0,9.262,4.21,9.262,9.261
	c0,5.052-4.209,9.261-9.262,9.261H366.561c-5.053,0-9.262-4.209-9.262-9.261C357.299,875.5,361.508,871.29,366.561,871.29z"/>
<path fill="#010101" stroke="#010101" stroke-miterlimit="10" d="M669.61,960.531H331.172c-10.104,0-17.68-7.577-17.68-17.681
	s7.576-17.68,17.68-17.68H668.77c10.104,0,17.68,7.576,17.68,17.68C687.291,952.112,678.872,960.531,669.61,960.531z"/>
</svg>
