<?xml version="1.0" encoding="utf-8"?>
<!-- Generator: Adobe Illustrator 16.0.0, SVG Export Plug-In . SVG Version: 6.00 Build 0)  -->
<!DOCTYPE svg PUBLIC "-//W3C//DTD SVG 1.1//EN" "http://www.w3.org/Graphics/SVG/1.1/DTD/svg11.dtd">
<svg version="1.1" id="Layer_1" xmlns="http://www.w3.org/2000/svg" xmlns:xlink="http://www.w3.org/1999/xlink" x="0px" y="0px"
	 width="1000px" height="1000px" viewBox="0 0 1000 1000" enable-background="new 0 0 1000 1000" xml:space="preserve">
<path fill="#010101" d="M482.32,260.189c0-10.103,8.419-17.68,17.68-17.68c9.26,0,17.68,8.419,17.68,17.68s-8.42,17.68-17.68,17.68
	C490.739,277.869,482.32,270.291,482.32,260.189z"/>
<g>
	<path fill="none" stroke="#010101" stroke-width="7" stroke-miterlimit="10" d="M678.48,890.764
		c0.842-3.367,0.842-6.733,0.842-9.261c0-24.414-20.205-44.62-44.621-44.62h-5.893c-1.686-6.735-2.525-14.312-4.211-21.047
		c-9.26-45.462-22.73-106.078-25.256-303.081c20.205-4.209,35.359-22.73,35.359-43.777c0-19.364-11.787-35.36-28.625-42.095
		l54.723-140.596l-33.674-12.628l-8.42,22.731c-18.52-7.577-43.777-11.787-68.191-14.312c2.525-5.894,4.209-12.628,4.209-20.206
		c-0.842-31.15-25.258-55.564-54.723-55.564c-29.466,0-53.881,24.415-53.881,53.881c0,6.735,1.684,13.47,4.209,20.205
		c-24.414,1.684-49.671,5.894-68.192,14.312l-8.419-22.731l-33.676,12.628l53.881,140.596
		c-16.838,6.735-28.624,22.731-28.624,42.094c0,21.89,15.153,39.569,35.359,43.778c-2.525,197.003-15.154,257.619-25.257,303.081
		c-1.685,7.576-3.368,14.312-4.21,21.047h-5.894c-24.415,0-44.619,20.205-44.619,44.62c0,3.367,0,6.734,0.842,9.261
		c-26.1,4.21-46.305,26.099-46.305,53.039c0,29.467,24.414,53.881,53.881,53.881h341.807c29.467,0,53.883-24.414,53.883-53.881
		C724.783,916.862,704.578,894.132,678.48,890.764z"/>
	<path fill="#010101" d="M409.918,475.712c-5.052,0-9.261-4.209-9.261-9.261c0-5.051,4.209-9.261,9.261-9.261h180.164
		c5.051,0,9.26,4.21,9.26,9.261c0,5.052-4.209,9.261-9.26,9.261H409.918z"/>
	<polygon fill="#010101" points="430.965,421.831 409.918,367.95 589.24,367.95 568.193,421.831 	"/>
	<path fill="#010101" d="M500,314.069c55.564,0,91.766,7.577,105.236,13.47l-1.686,5.051H396.447l-1.685-5.051
		C408.234,321.647,444.436,314.069,500,314.069z"/>
	<path fill="#010101" d="M410.759,821.729c10.104-47.146,22.731-109.445,25.258-309.815h127.124
		c2.525,200.37,15.996,262.67,25.258,309.815c0.842,5.052,1.684,9.262,2.523,14.312H408.234
		C409.076,830.99,409.918,826.78,410.759,821.729z"/>
	<path fill="#010101" d="M365.298,871.4h269.403c5.053,0,9.262,4.21,9.262,9.261c0,5.052-4.209,9.261-9.262,9.261H365.298
		c-5.052,0-9.261-4.209-9.261-9.261C356.037,875.61,360.246,871.4,365.298,871.4z"/>
	<path fill="#010101" d="M670.902,961.481H329.096c-10.103,0-17.68-8.419-17.68-17.68c0-10.103,8.419-17.68,17.68-17.68h341.807
		c10.104,0,17.68,8.419,17.68,17.68C688.582,953.906,681.006,961.481,670.902,961.481z"/>
</g>
</svg>
