<?xml version="1.0" encoding="utf-8"?>
<!-- Generator: Adobe Illustrator 16.0.0, SVG Export Plug-In . SVG Version: 6.00 Build 0)  -->
<!DOCTYPE svg PUBLIC "-//W3C//DTD SVG 1.1//EN" "http://www.w3.org/Graphics/SVG/1.1/DTD/svg11.dtd">
<svg version="1.1" id="Layer_1" xmlns="http://www.w3.org/2000/svg" xmlns:xlink="http://www.w3.org/1999/xlink" x="0px" y="0px"
	 width="1000px" height="1000px" viewBox="0 0 1000 1000" enable-background="new 0 0 1000 1000" xml:space="preserve">
<g>
	<path fill="none" stroke="#010101" stroke-width="7" stroke-miterlimit="10" d="M677.206,890.787
		c0.842-3.369,0.842-5.895,0.842-9.262c0-24.414-20.204-44.621-44.619-44.621h-5.895c-1.684-6.733-2.524-13.469-4.209-21.047
		c-9.261-45.461-21.89-105.236-24.415-299.712c20.205-4.21,35.359-21.889,35.359-43.778c0-19.363-12.628-36.201-30.309-42.095
		l34.519-111.129l-119.549-46.305v-23.573h17.68v-34.517h-17.68v-17.68h-35.359v17.68h-17.68v35.359h17.68v23.573l-119.548,46.304
		l34.517,111.13c-17.68,5.893-30.308,22.731-30.308,42.094c0,21.047,15.154,38.727,35.359,43.778
		c-4.21,193.634-16.839,253.41-26.1,298.871c-1.684,7.578-3.367,14.312-4.209,21.047h-5.894c-24.415,0-44.62,20.207-44.62,44.621
		c0,3.367,0,6.734,0.842,9.262c-26.099,4.209-45.462,26.099-45.462,53.039c0,29.465,23.573,53.039,53.039,53.039h337.598
		c29.466,0,53.039-23.574,53.039-53.039C722.667,916.885,702.462,894.996,677.206,890.787z"/>
	<path fill="#010101" d="M411.168,481.628c-5.052,0-9.261-4.21-9.261-9.261c0-5.052,4.209-9.261,9.261-9.261h177.64
		c5.052,0,9.261,4.209,9.261,9.261c0,5.051-4.209,9.261-9.261,9.261H411.168z"/>
	<polygon fill="#010101" points="583.755,374.708 567.76,427.747 433.899,427.747 417.904,374.708 	"/>
	<polygon fill="#010101" points="411.168,339.349 500.409,304.831 589.649,339.349 	"/>
	<path fill="#010101" d="M412.01,823.436c10.104-46.305,22.731-108.604,25.258-306.449h125.44
		c2.525,197.845,15.154,260.145,25.257,306.449c0.843,5.051,1.685,9.26,2.525,13.469H409.485
		C410.327,832.695,411.168,827.645,412.01,823.436z"/>
	<path fill="#010101" d="M367.391,872.264H634.27c5.052,0,9.261,4.211,9.261,9.262s-4.209,9.26-9.261,9.26H367.391
		c-5.053,0-9.262-4.209-9.262-9.26S362.338,872.264,367.391,872.264z"/>
	<path fill="#010101" d="M669.628,961.506H331.189c-10.104,0-17.68-7.578-17.68-17.681c0-10.104,7.576-17.68,17.68-17.68h337.598
		c10.104,0,17.68,7.576,17.68,17.68C687.309,953.086,678.89,961.506,669.628,961.506z"/>
</g>
</svg>
