<?xml version="1.0" encoding="utf-8"?>
<!-- Generator: Adobe Illustrator 16.0.0, SVG Export Plug-In . SVG Version: 6.00 Build 0)  -->
<!DOCTYPE svg PUBLIC "-//W3C//DTD SVG 1.1//EN" "http://www.w3.org/Graphics/SVG/1.1/DTD/svg11.dtd">
<svg version="1.1" id="Layer_1" xmlns="http://www.w3.org/2000/svg" xmlns:xlink="http://www.w3.org/1999/xlink" x="0px" y="0px"
	 width="1000px" height="1000px" viewBox="0 0 1000 1000" enable-background="new 0 0 1000 1000" xml:space="preserve">
<g>
	<path fill="none" stroke="#010101" stroke-width="7" stroke-miterlimit="10" d="M724.35,889.418
		c0.842-3.367,0.842-6.734,0.842-9.261c0-24.415-20.205-44.62-44.62-44.62h-17.681c4.211-101.868,39.569-187.741,68.193-257.618
		c24.415-37.043,38.729-81.663,38.729-129.651c0.842-128.81-104.395-234.046-233.204-234.046h-17.681v44.621h-63.142
		c-42.937,0-77.454,32.833-80.821,74.928c-5.052,4.21-16.838,10.945-26.939,17.68c-47.146,28.625-117.864,72.403-117.864,133.019
		c0,42.938,32.833,77.454,74.928,80.822c7.577,21.047,27.782,36.201,51.355,36.201c25.257,0,47.146-17.68,52.196-41.253
		l43.778-18.521c5.894,4.209,13.47,7.577,20.205,10.104c-6.735,47.986-47.988,85.031-98.501,85.031h-19.364l17.681,197.844h-15.995
		c-24.415,0-44.62,20.205-44.62,44.62c0,3.367,0,6.734,0.842,9.261c-26.099,4.21-46.304,26.099-46.304,53.039
		c0,29.467,24.414,53.881,53.881,53.881h395.688c29.467,0,53.882-24.414,53.882-53.881
		C770.654,916.358,750.448,893.628,724.35,889.418z"/>
	<path fill="#010101" d="M394.329,671.369c59.774-8.419,106.92-57.249,114.497-117.023c15.996-2.524,30.308-9.261,42.937-21.047
		c14.312-14.312,22.73-33.676,22.73-53.881c0-20.206-9.261-40.411-23.572-54.723l-25.257,25.257
		c15.996,15.996,15.996,41.252,0,57.249s-41.253,15.996-57.249,0l-8.419-8.419l-85.872,36.2v11.785
		c0,10.104-8.419,17.681-17.68,17.681s-16.838-7.576-17.681-16.838l29.467-23.572l-22.731-27.782l-39.567,31.149
		c-21.89-2.525-39.568-21.89-39.568-44.62c0-40.411,63.142-79.138,100.185-101.869c29.466-18.521,43.778-26.94,43.778-42.094
		c0-24.415,20.205-44.62,44.62-44.62h63.142v26.94h36.201v-71.561c101.026,9.261,180.165,94.292,180.165,197.002
		c0,109.445-88.398,197.844-197.845,197.844v36.202c47.986,0,93.45-14.312,130.493-39.568
		c-20.205,56.405-37.886,120.391-40.411,192.793H408.641L394.329,671.369z"/>
	<path fill="#010101" d="M356.444,870.896h324.127c5.052,0,9.261,4.21,9.261,9.261c0,5.052-4.209,9.261-9.261,9.261H356.444
		c-5.052,0-9.261-4.209-9.261-9.261C347.184,875.106,351.393,870.896,356.444,870.896z"/>
	<path fill="#010101" d="M716.773,960.979H321.085c-10.103,0-17.68-8.42-17.68-17.681c0-10.103,8.419-17.68,17.68-17.68h395.688
		c10.103,0,17.68,8.419,17.68,17.68C734.453,953.402,726.034,960.979,716.773,960.979z"/>
	<polygon fill="#FFFFFF" points="473.466,316.091 491.988,347.241 447.368,374.182 428.846,343.032 	"/>
	<polygon fill="#FFFFFF" points="301.722,460.055 321.927,490.362 294.986,508.042 274.781,477.734 	"/>
</g>
</svg>
