<?xml version="1.0" encoding="utf-8"?>
<!-- Generator: Adobe Illustrator 16.0.0, SVG Export Plug-In . SVG Version: 6.00 Build 0)  -->
<!DOCTYPE svg PUBLIC "-//W3C//DTD SVG 1.1//EN" "http://www.w3.org/Graphics/SVG/1.1/DTD/svg11.dtd">
<svg version="1.1" id="Layer_1" xmlns="http://www.w3.org/2000/svg" xmlns:xlink="http://www.w3.org/1999/xlink" x="0px" y="0px"
	 width="1000px" height="1000px" viewBox="0 0 1000 1000" enable-background="new 0 0 1000 1000" xml:space="preserve">
<g>
	<path fill="none" stroke="#010101" stroke-width="7" stroke-miterlimit="10" d="M678.48,890.555
		c0.842-3.367,0.842-6.733,0.842-9.26c0-24.414-19.363-43.779-42.938-44.621c-1.684-2.524-2.523-5.051-4.209-6.733
		c-15.996-25.257-41.252-63.984-42.094-298.871c24.414,0,44.619-20.206,44.619-44.62c0-24.415-19.363-43.779-43.777-44.621
		c26.939-26.099,43.777-61.458,43.777-101.027c0-74.086-60.615-134.702-134.701-134.702c-74.087,0-134.702,60.616-134.702,134.702
		c0,39.569,16.838,74.086,43.778,99.343c-24.415,0.842-43.778,20.206-43.778,44.62c0,24.415,20.205,44.62,44.62,44.62
		c-0.842,234.888-26.099,273.614-42.095,298.872c-1.685,2.525-3.367,5.051-4.209,6.734c-24.415,0.842-42.938,20.205-42.938,44.621
		c0,3.366,0,6.733,0.842,9.26c-26.099,4.211-46.304,26.1-46.304,53.039c0,29.467,24.414,53.881,53.881,53.881h341.809
		c29.467,0,53.881-24.414,53.881-53.881C724.785,916.654,704.58,893.924,678.48,890.555z"/>
	<path fill="#010101" d="M356.037,880.453c0-5.051,4.209-9.262,9.261-9.262h269.405c5.051,0,9.26,4.211,9.26,9.262
		s-4.209,9.26-9.26,9.26H365.298C360.246,889.713,356.037,885.504,356.037,880.453z"/>
	<path fill="#010101" d="M405.708,835.832c18.521-31.99,39.569-90.924,40.411-305.606h107.762
		c0.842,214.683,21.891,273.616,40.412,305.606H405.708z"/>
	<path fill="#010101" d="M401.499,340.801c0-54.723,44.62-99.343,99.343-99.343c54.725,0,98.502,44.62,98.502,99.343
		c0,54.723-44.621,99.343-99.344,99.343S401.499,395.524,401.499,340.801z"/>
	<path fill="#010101" d="M401.499,484.764c0-5.051,4.209-9.261,9.261-9.261h180.164c5.053,0,9.262,4.21,9.262,9.261
		c0,5.053-4.209,9.262-9.262,9.262H409.918C404.866,494.025,401.499,489.816,401.499,484.764z"/>
	<path fill="#010101" d="M670.904,961.273H329.096c-10.103,0-17.68-8.418-17.68-17.681c0-10.102,8.419-17.68,17.68-17.68h341.809
		c10.104,0,17.68,8.42,17.68,17.68C688.584,953.697,681.006,961.273,670.904,961.273z"/>
</g>
</svg>
