<?xml version="1.0" encoding="utf-8"?>
<!-- Generator: Adobe Illustrator 16.0.0, SVG Export Plug-In . SVG Version: 6.00 Build 0)  -->
<!DOCTYPE svg PUBLIC "-//W3C//DTD SVG 1.1//EN" "http://www.w3.org/Graphics/SVG/1.1/DTD/svg11.dtd">
<svg version="1.1" id="Layer_1" xmlns="http://www.w3.org/2000/svg" xmlns:xlink="http://www.w3.org/1999/xlink" x="0px" y="0px"
	 width="1000px" height="1000px" viewBox="0 0 1000 1000" enable-background="new 0 0 1000 1000" xml:space="preserve">
<g>
	<path fill="none" stroke="#010101" stroke-width="7" stroke-miterlimit="10" d="M715.098,887.396
		c0.844-3.367,0.844-6.736,0.844-10.104c0-22.729-16.838-41.252-38.729-44.619c-2.523-6.736-5.051-13.471-7.576-20.205
		c-17.68-43.778-42.938-102.711-43.777-341.809c25.256,0,45.461-20.206,45.461-45.462c0-5.894-0.842-10.945-3.367-15.996
		C680.582,400.781,689,387.311,689,371.315v-90.082v-53.88v-17.68h-99.342v53.881h-17.68v-53.881H427.174v53.881h-17.68v-53.881
		h-99.343v17.68v53.881v90.924c0,15.996,8.419,30.308,21.047,37.885c-1.685,5.051-3.367,10.103-3.367,15.996
		c0,25.257,20.205,45.462,45.462,45.462c-0.842,239.098-26.099,298.029-43.778,341.809c-2.525,6.734-5.894,13.47-7.577,20.205
		c-21.889,3.367-38.727,21.89-38.727,44.619c0,3.369,0,6.736,0.842,10.104c-26.099,4.209-46.304,26.098-46.304,53.881
		c0,30.309,24.414,53.881,53.881,53.881h415.894c30.309,0,53.881-24.414,53.881-53.881
		C761.404,913.493,741.197,891.604,715.098,887.396z"/>
	<path fill="#010101" stroke="#010101" stroke-miterlimit="10" d="M318.57,878.134c0-5.051,4.209-9.26,9.261-9.26H671.32
		c5.053,0,9.262,4.209,9.262,9.26c0,5.053-4.209,9.263-9.262,9.263H327.831C322.779,886.554,318.57,882.345,318.57,878.134z"/>
	<path fill="#010101" stroke="#010101" stroke-miterlimit="10" d="M346.352,245.875h26.94v53.881h90.082v-53.881h72.401v53.881
		h90.082v-53.881h26.939v36.201v90.083c0,5.051-4.209,9.261-9.26,9.261H354.771c-5.053,0-9.262-4.209-9.262-9.261v-90.924v-35.36
		H346.352z"/>
	<path fill="#010101" stroke="#010101" stroke-miterlimit="10" d="M364.032,426.039c0-5.051,4.209-9.261,9.261-9.261h252.566
		c5.051,0,9.26,4.209,9.26,9.261c0,5.052-4.209,9.261-9.26,9.261H373.293C368.241,435.3,364.032,431.09,364.032,426.039z"/>
	<path fill="#010101" stroke="#010101" stroke-miterlimit="10" d="M409.494,471.501H590.5
		c0.842,245.832,26.939,308.975,46.305,355.277c0.842,1.686,1.684,3.369,2.525,5.895H360.664c0.842-1.684,1.684-3.367,2.526-5.895
		C381.712,780.476,407.81,717.333,409.494,471.501z"/>
	<path fill="#010101" stroke="#010101" stroke-miterlimit="10" d="M707.523,958.956H291.63c-10.104,0-17.68-8.42-17.68-17.68
		c0-9.263,8.419-17.681,17.68-17.681h415.894c10.104,0,17.68,8.418,17.68,17.681C725.203,950.536,717.625,958.956,707.523,958.956z"
		/>
</g>
</svg>
