<?xml version="1.0" encoding="utf-8"?>
<!-- Generator: Adobe Illustrator 19.0.0, SVG Export Plug-In . SVG Version: 6.00 Build 0)  -->
<svg version="1.1" id="Layer_1" xmlns="http://www.w3.org/2000/svg" xmlns:xlink="http://www.w3.org/1999/xlink" x="0px" y="0px"
	 viewBox="0 0 100 100" style="enable-background:new 0 0 100 100;" xml:space="preserve">
<g id="XMLID_9_">
	<path id="XMLID_10_" d="M71,87.4c0.1-0.4,0.1-0.7,0.1-1.1c0-2.9-2.4-5.3-5.3-5.3h-0.7c-0.2-0.8-0.3-1.6-0.5-2.5
		C63.5,73.1,62,66,61.7,42.9c2.4-0.5,4.2-2.6,4.2-5.2c0-2.3-1.5-4.3-3.6-5l4.1-13.2l-14.2-5.5v-2.8h2.1V7.1h-2.1V5h-4.2v2.1h-2.1
		v4.2h2.1v2.8l-14.2,5.5l4.1,13.2c-2.1,0.7-3.6,2.7-3.6,5c0,2.5,1.8,4.6,4.2,5.2C38,66,36.5,73.1,35.4,78.5
		c-0.2,0.9-0.4,1.7-0.5,2.5h-0.7c-2.9,0-5.3,2.4-5.3,5.3c0,0.4,0,0.8,0.1,1.1c-3.1,0.5-5.4,3.1-5.4,6.3c0,3.5,2.8,6.3,6.3,6.3h40.1
		c3.5,0,6.3-2.8,6.3-6.3C76.4,90.5,74,87.9,71,87.4z M39.4,38.8c-0.6,0-1.1-0.5-1.1-1.1c0-0.6,0.5-1.1,1.1-1.1h21.1
		c0.6,0,1.1,0.5,1.1,1.1c0,0.6-0.5,1.1-1.1,1.1H39.4z M59.9,26.1l-1.9,6.3H42.1l-1.9-6.3H59.9z M39.4,21.9L50,17.8l10.6,4.1H39.4z
		 M39.5,79.4c1.2-5.5,2.7-12.9,3-36.4h14.9c0.3,23.5,1.8,30.9,3,36.4c0.1,0.6,0.2,1.1,0.3,1.6H39.2C39.3,80.5,39.4,79.9,39.5,79.4z
		 M34.2,85.2h31.7c0.6,0,1.1,0.5,1.1,1.1s-0.5,1.1-1.1,1.1H34.2c-0.6,0-1.1-0.5-1.1-1.1S33.6,85.2,34.2,85.2z M70.1,95.8H29.9
		c-1.2,0-2.1-0.9-2.1-2.1c0-1.2,0.9-2.1,2.1-2.1h40.1c1.2,0,2.1,0.9,2.1,2.1C72.2,94.8,71.2,95.8,70.1,95.8z"/>
</g>
</svg>
